<svg xmlns="http://www.w3.org/2000/svg" viewBox="0 0 154.6 154.6"><path fill="#5189af" d="M0 0h154.6v154.6H0z"/><path d="M77.4 44.5c10.7 0 12 0 16.2.2 3.9.2 6 .8 7.5 1.4 1.9.7 3.2 1.6 4.6 3 1.4 1.4 2.3 2.7 3 4.6.6 1.4 1.2 3.5 1.4 7.5.2 4.2.2 5.5.2 16.2s0 12-.2 16.2c-.2 3.9-.8 6-1.4 7.5-.7 1.9-1.6 3.2-3 4.6-1.4 1.4-2.7 2.3-4.6 3-1.4.6-3.5 1.2-7.5 1.4-4.2.2-5.5.2-16.2.2s-12 0-16.2-.2c-3.9-.2-6-.8-7.5-1.4-1.9-.7-3.2-1.6-4.6-3-1.4-1.4-2.3-2.7-3-4.6-.5-1.4-1.2-3.5-1.4-7.5-.2-4.2-.2-5.5-.2-16.2s0-12 .2-16.2c.2-3.9.8-6 1.4-7.5.7-1.9 1.6-3.2 3-4.6 1.4-1.4 2.7-2.3 4.6-3 1.4-.5 3.5-1.2 7.5-1.4 4.2-.2 5.5-.2 16.2-.2m0-7.2c-10.9 0-12.3 0-16.6.2-4.3.2-7.2.9-9.7 1.9-2.6 1-4.9 2.4-7.1 4.6-2.2 2.2-3.6 4.5-4.6 7.1-1 2.6-1.7 5.5-1.9 9.8-.2 4.3-.2 5.6-.2 16.6 0 10.9 0 12.3.2 16.6.2 4.3.9 7.2 1.9 9.7 1 2.6 2.4 4.9 4.6 7.1 2.2 2.2 4.5 3.6 7.1 4.6 2.6 1 5.5 1.7 9.7 1.9 4.3.2 5.7.2 16.6.2 10.9 0 12.3 0 16.6-.2 4.3-.2 7.2-.9 9.7-1.9 2.6-1 4.9-2.4 7.1-4.6 2.2-2.2 3.6-4.5 4.6-7.1 1-2.6 1.7-5.5 1.9-9.7.2-4.3.2-5.6.2-16.6 0-10.9 0-12.3-.2-16.6-.2-4.3-.9-7.2-1.9-9.8-1-2.6-2.4-4.9-4.6-7.1-2.2-2.2-4.5-3.6-7.1-4.6-2.6-1-5.5-1.7-9.7-1.9-4.3-.2-5.7-.2-16.6-.2m0 19.5C66 56.8 56.8 66 56.8 77.4S66 98 77.4 98C88.8 98 98 88.8 98 77.4s-9.2-20.6-20.6-20.6m0 34c-7.4 0-13.4-6-13.4-13.4S70 64 77.4 64s13.4 6 13.4 13.4-6 13.4-13.4 13.4M103.7 56c0-2.7-2.2-4.8-4.8-4.8-2.7 0-4.8 2.2-4.8 4.8 0 2.7 2.2 4.8 4.8 4.8 2.6 0 4.8-2.2 4.8-4.8" fill="#fff"/></svg>